<svg width="32" height="32" viewBox="0 0 32 32" fill="none" xmlns="http://www.w3.org/2000/svg">
<path fill-rule="evenodd" clip-rule="evenodd" d="M6.3998 6.40001C6.3998 5.55132 6.73695 4.73739 7.33706 4.13727C7.93718 3.53715 8.75111 3.20001 9.5998 3.20001H22.3998C23.2485 3.20001 24.0624 3.53715 24.6625 4.13727C25.2627 4.73739 25.5998 5.55132 25.5998 6.40001V25.6C26.0242 25.6 26.4311 25.7686 26.7312 26.0686C27.0312 26.3687 27.1998 26.7757 27.1998 27.2C27.1998 27.6244 27.0312 28.0313 26.7312 28.3314C26.4311 28.6314 26.0242 28.8 25.5998 28.8H20.7998C20.3755 28.8 19.9685 28.6314 19.6684 28.3314C19.3684 28.0313 19.1998 27.6244 19.1998 27.2V24C19.1998 23.5757 19.0312 23.1687 18.7312 22.8686C18.4311 22.5686 18.0242 22.4 17.5998 22.4H14.3998C13.9755 22.4 13.5685 22.5686 13.2684 22.8686C12.9684 23.1687 12.7998 23.5757 12.7998 24V27.2C12.7998 27.6244 12.6312 28.0313 12.3312 28.3314C12.0311 28.6314 11.6242 28.8 11.1998 28.8H6.3998C5.97546 28.8 5.56849 28.6314 5.26843 28.3314C4.96838 28.0313 4.7998 27.6244 4.7998 27.2C4.7998 26.7757 4.96838 26.3687 5.26843 26.0686C5.56849 25.7686 5.97546 25.6 6.3998 25.6V6.40001ZM11.1998 8.00001H14.3998V11.2H11.1998V8.00001ZM14.3998 14.4H11.1998V17.6H14.3998V14.4ZM17.5998 8.00001H20.7998V11.2H17.5998V8.00001ZM20.7998 14.4H17.5998V17.6H20.7998V14.4Z" fill="#10CF8A"/>
</svg>
