<svg width="32" height="32" viewBox="0 0 32 32" fill="none" xmlns="http://www.w3.org/2000/svg">
<path d="M11.2002 4.79999C10.7758 4.79999 10.3689 4.96856 10.0688 5.26862C9.76877 5.56868 9.60019 5.97564 9.60019 6.39999C9.60019 6.82433 9.76877 7.2313 10.0688 7.53136C10.3689 7.83142 10.7758 7.99999 11.2002 7.99999H20.8002C21.2245 7.99999 21.6315 7.83142 21.9316 7.53136C22.2316 7.2313 22.4002 6.82433 22.4002 6.39999C22.4002 5.97564 22.2316 5.56868 21.9316 5.26862C21.6315 4.96856 21.2245 4.79999 20.8002 4.79999H11.2002ZM6.4002 11.2C6.4002 10.7756 6.56877 10.3687 6.86882 10.0686C7.16888 9.76856 7.57585 9.59999 8.0002 9.59999H24.0002C24.4245 9.59999 24.8315 9.76856 25.1316 10.0686C25.4316 10.3687 25.6002 10.7756 25.6002 11.2C25.6002 11.6243 25.4316 12.0313 25.1316 12.3314C24.8315 12.6314 24.4245 12.8 24.0002 12.8H8.0002C7.57585 12.8 7.16888 12.6314 6.86882 12.3314C6.56877 12.0313 6.4002 11.6243 6.4002 11.2ZM3.2002 17.6C3.2002 16.7513 3.53734 15.9374 4.13745 15.3372C4.73757 14.7371 5.5515 14.4 6.4002 14.4H25.6002C26.4489 14.4 27.2628 14.7371 27.8629 15.3372C28.4631 15.9374 28.8002 16.7513 28.8002 17.6V24C28.8002 24.8487 28.4631 25.6626 27.8629 26.2627C27.2628 26.8628 26.4489 27.2 25.6002 27.2H6.4002C5.5515 27.2 4.73757 26.8628 4.13745 26.2627C3.53734 25.6626 3.2002 24.8487 3.2002 24V17.6Z" fill="#10CF8A"/>
</svg>
